<?xml version="1.0" encoding="UTF-8" standalone="no"?><!DOCTYPE svg PUBLIC "-//W3C//DTD SVG 1.1//EN" "http://www.w3.org/Graphics/SVG/1.1/DTD/svg11.dtd"><svg width="100%" height="100%" viewBox="0 0 2065 2065" version="1.1" xmlns="http://www.w3.org/2000/svg" xmlns:xlink="http://www.w3.org/1999/xlink" xml:space="preserve" style="fill-rule:evenodd;clip-rule:evenodd;stroke-linejoin:round;stroke-miterlimit:1.41421;"><path d="M1717.26,850.483c0.05,-2.916 0.111,-5.827 0.111,-8.75c0,-278.639 -225.883,-504.522 -504.522,-504.522c-240.122,0 -441.044,167.756 -492.011,392.461c-47.528,-26.605 -102.272,-41.839 -160.611,-41.839c-182.034,0 -329.6,147.567 -329.6,329.6c0,7.439 0.333,14.8 0.822,22.117c-135.139,50.167 -231.45,180.244 -231.45,332.839c0,196.033 158.917,354.955 354.956,354.955l1265.9,0c245.045,-0.005 443.695,-198.655 443.695,-443.7c0,-211.938 -148.606,-389.138 -347.295,-433.161Z" style="fill:#fff;fill-rule:nonzero;"/><g><path d="M1531.52,612.665c-14.784,-5.934 -31.8,-2.698 -43.126,8.225l-102.324,98.707c-164.115,-114.822 -395.397,-101.405 -543.222,41.196l-41.865,40.387c-32.154,31.012 -32.154,81.376 0,112.393c16.075,15.506 37.182,23.26 58.221,23.26c21.111,0 42.181,-7.752 58.256,-23.26l41.87,-40.389c83.348,-80.432 210.382,-93.242 307.989,-38.967l-91.91,88.59c-11.325,10.922 -14.678,27.372 -8.6,41.601c6.154,14.294 20.584,23.598 36.592,23.598l312.954,0c21.876,0 39.594,-17.127 39.594,-38.164l0,-301.915c-0.002,-15.44 -9.612,-29.397 -24.429,-35.262Z" style="fill:#1e88e5;fill-rule:nonzero;"/><path d="M1409.06,1260.93l-41.833,40.384c-48.194,46.519 -112.353,72.142 -180.536,72.142c-45.538,0 -89.15,-11.664 -127.525,-33.106l91.945,-88.726c11.358,-10.923 14.715,-27.307 8.6,-41.598c-6.151,-14.23 -20.583,-23.532 -36.591,-23.532l-312.953,0c-21.876,0 -39.593,17.062 -39.593,38.162l0,301.919c0,15.436 9.644,29.328 24.426,35.262c14.783,5.93 31.835,2.626 43.159,-8.296l102.187,-98.569c71.257,49.957 156.527,77.398 246.345,77.398c112.215,0 217.685,-42.138 297.054,-118.73l41.829,-40.318c32.15,-31.083 32.15,-81.378 0,-112.392c-32.188,-31.015 -84.364,-31.015 -116.514,0Z" style="fill:#1e88e5;fill-rule:nonzero;"/></g></svg>