<?xml version="1.0" encoding="utf-8"?>
<!-- Generator: Adobe Illustrator 21.0.2, SVG Export Plug-In . SVG Version: 6.00 Build 0)  -->
<svg version="1.1" id="Layer_1" xmlns="http://www.w3.org/2000/svg" xmlns:xlink="http://www.w3.org/1999/xlink" x="0px" y="0px"
	 viewBox="0 0 192.6 72.8" style="enable-background:new 0 0 192.6 72.8;" xml:space="preserve">
<style type="text/css">
	.st0{fill:url(#SVGID_1_);}
	.st1{fill:#FFFFFF;}
</style>
<g>
	<g>
		<path d="M2,47.3c2,1.2,6.2,2.6,9.4,2.6c3.3,0,4.7-1.1,4.7-2.9c0-1.9-1.1-2.7-5.1-4.1C3.7,40.5,0.8,36.5,0.9,32.3
			c0-6.6,5.6-11.6,14.3-11.6c4.1,0,7.7,1,9.9,2.1l-1.9,7.6c-1.6-0.9-4.7-2-7.6-2c-2.7,0-4.2,1.1-4.2,2.8s1.4,2.6,5.7,4.1
			c6.7,2.3,9.4,5.8,9.5,10.9c0,6.6-5.1,11.4-15.2,11.4c-4.6,0-8.7-1.1-11.4-2.5L2,47.3z"/>
		<path d="M41.5,21.6L46.8,39c0.6,2,1.3,4.7,1.7,6.6h0.3c0.4-1.9,1-4.5,1.5-6.6l4.4-17.3h11.7l-8.2,23.2c-5,14-8.4,19.6-12.4,23.1
			c-3.7,3.3-7.8,4.5-10.5,4.8l-2.4-9.2c1.4-0.3,3.1-0.9,4.8-1.9c1.7-0.9,3.5-2.7,4.5-4.4c0.4-0.6,0.6-1.2,0.6-1.6s-0.1-0.9-0.4-1.8
			l-13-32.3L41.5,21.6L41.5,21.6z"/>
		<path d="M70.9,32.8c0-4.4-0.1-8.1-0.3-11.2h9.5l0.5,4.9h0.2c1.4-2.3,5-5.7,10.9-5.7c7.2,0,12.6,4.8,12.6,15.2v20.8H93.4V37.3
			c0-4.5-1.6-7.6-5.5-7.6c-3,0-4.8,2.1-5.6,4.1c-0.3,0.7-0.4,1.7-0.4,2.7v20.3H71L70.9,32.8L70.9,32.8z"/>
		<path d="M124.1,36.4h0.1c0.8-1.5,1.7-3,2.5-4.2l7.1-10.6H147l-12.6,14.3l14.4,21h-13.5l-8.6-14.5l-2.7,3.5v11h-10.9V5.8H124v30.6
			H124.1z"/>
		<path d="M164.2,11.8c0,3-2.2,5.5-5.9,5.5c-3.5,0-5.7-2.4-5.7-5.5s2.3-5.5,5.8-5.5C161.9,6.3,164.1,8.7,164.2,11.8z M152.9,56.8
			V21.6h10.9v35.2H152.9z"/>
		<path d="M184.8,12.1v9.5h7.8v8.1h-7.8v12.7c0,4.2,1.1,6.2,4.3,6.2c1.5,0,2.2-0.1,3.2-0.3l0.1,8.3c-1.4,0.5-4,0.9-7.1,0.9
			c-3.5,0-6.5-1.2-8.3-3c-2-2.1-3-5.5-3-10.4V29.7h-4.7v-8.1h4.7V15L184.8,12.1z"/>
	</g>
</g>
<radialGradient id="SVGID_1_" cx="157.7" cy="86.5" r="9.5" gradientTransform="matrix(1 0 0 -1 0 96)" gradientUnits="userSpaceOnUse">
	<stop  offset="0" style="stop-color:#00FF00"/>
	<stop  offset="2.630985e-02" style="stop-color:#03FC00"/>
	<stop  offset="0.2587" style="stop-color:#1EE404"/>
	<stop  offset="0.4962" style="stop-color:#31D307"/>
	<stop  offset="0.7401" style="stop-color:#3CC908"/>
	<stop  offset="1" style="stop-color:#40C609"/>
</radialGradient>
<circle class="st0" cx="157.7" cy="9.5" r="9.5"/>
<polygon class="st1" points="150.7,10 156.2,12 164.7,5.3 156.7,16 "/>
</svg>
